<?xml version="1.0" encoding="UTF-8" standalone="no"?>
<svg
   xmlns:dc="http://purl.org/dc/elements/1.1/"
   xmlns:cc="http://creativecommons.org/ns#"
   xmlns:rdf="http://www.w3.org/1999/02/22-rdf-syntax-ns#"
   xmlns:svg="http://www.w3.org/2000/svg"
   xmlns="http://www.w3.org/2000/svg"
   xmlns:sodipodi="http://sodipodi.sourceforge.net/DTD/sodipodi-0.dtd"
   xmlns:inkscape="http://www.inkscape.org/namespaces/inkscape"
   version="1.1"
   id="Capa_1"
   x="0px"
   y="0px"
   width="515.82898"
   height="180.23599"
   viewBox="0 0 515.82895 180.23599"
   enable-background="new 0 0 595.28 841.89"
   xml:space="preserve"
   sodipodi:docname="IGNIS_cowork_horizontal.svg"
   inkscape:version="1.0.1 (3bc2e813f5, 2020-09-07)"><metadata
   id="metadata77"><rdf:RDF><cc:Work
       rdf:about=""><dc:format>image/svg+xml</dc:format><dc:type
         rdf:resource="http://purl.org/dc/dcmitype/StillImage" /><dc:title></dc:title></cc:Work></rdf:RDF></metadata><defs
   id="defs75" /><sodipodi:namedview
   pagecolor="#ffffff"
   bordercolor="#666666"
   borderopacity="1"
   objecttolerance="10"
   gridtolerance="10"
   guidetolerance="10"
   inkscape:pageopacity="0"
   inkscape:pageshadow="2"
   inkscape:window-width="1920"
   inkscape:window-height="1057"
   id="namedview73"
   showgrid="false"
   fit-margin-top="0"
   fit-margin-left="0"
   fit-margin-right="0"
   fit-margin-bottom="0"
   inkscape:zoom="1.0096331"
   inkscape:cx="266.92201"
   inkscape:cy="180.23601"
   inkscape:window-x="318"
   inkscape:window-y="-8"
   inkscape:window-maximized="1"
   inkscape:current-layer="Capa_1" />
<linearGradient
   id="SVGID_1_"
   gradientUnits="userSpaceOnUse"
   x1="110.1245"
   y1="420.4263"
   x2="110.1245"
   y2="240.71001"
   gradientTransform="translate(-30.718,-240.709)">
	<stop
   offset="0.0054"
   style="stop-color:#C73A38"
   id="stop2" />
	<stop
   offset="0.9946"
   style="stop-color:#F9B233"
   id="stop4" />
</linearGradient>
<path
   fill="url(#SVGID_1_)"
   d="m 148.565,59.093 c -10.687,25.875 -24.732,30.694 -46.209,51.637 0.639,-7.783 0.554,-16.001 -0.268,-24.852 C 98.491,47.16 83.596,22.107 51.436,0 c 2.395,5.712 3.556,9.027 5.25,14.979 9.531,33.51 -2.505,47.171 -5.959,89.138 -0.119,1.448 -0.206,2.846 -0.276,4.221 C 37.299,93.093 21.929,85.806 0,83.894 c 3.224,2.497 4.968,4.018 7.87,6.884 16.343,16.115 13.879,27.857 25.521,53.042 9.236,19.974 19.385,24.066 34.93,35.893 v 0.004 c 0.003,0 0.004,0 0.004,0 h 0.005 c 33.333,-4.606 54.495,-18.047 72.832,-46.265 18.803,-28.939 22.217,-54.585 11.988,-87.675 -1.475,5.289 -2.492,8.242 -4.585,13.316 z M 40.395,134.85 c -2.247,-5.867 -3.622,-10.803 -4.184,-15.826 2.02,1.272 3.7,2.38 5.89,4.105 14.263,11.23 21.436,24.153 21.818,41.477 C 52.625,157.569 45.648,148.575 40.395,134.85 Z m 22.276,-8.208 c 0.241,-8.987 1.789,-18.332 4.62,-28.518 2.886,-10.383 6.022,-18.588 10.371,-26.086 1.487,3.812 2.672,7.055 3.936,11.667 7.911,28.893 5.127,53.258 -10.37,76.686 0.268,-11.868 -2.507,-22.668 -8.557,-33.749 z m 66.165,-7.674 c -10.432,24.573 -25.794,40.152 -49.432,48.103 9.261,-11.549 15.585,-23.257 19.318,-35.983 3.569,-3.393 7.546,-6.682 11.99,-9.923 7.819,-5.712 14.604,-9.754 21.851,-12.619 -1.072,3.516 -2.046,6.466 -3.727,10.422 z"
   id="path7"
   style="fill:url(#SVGID_1_)" />
<g
   id="g44"
   transform="translate(-30.718,-240.709)">
	<linearGradient
   id="SVGID_2_"
   gradientUnits="userSpaceOnUse"
   x1="236.7876"
   y1="358.68161"
   x2="236.7876"
   y2="287.7363">
		<stop
   offset="0.0054"
   style="stop-color:#C73A38"
   id="stop9" />
		<stop
   offset="0.9946"
   style="stop-color:#F9B233"
   id="stop11" />
	</linearGradient>
	<rect
   x="231.646"
   y="287.73599"
   fill="url(#SVGID_2_)"
   width="10.282"
   height="70.945"
   id="rect14"
   style="fill:url(#SVGID_2_)" />
	<linearGradient
   id="SVGID_3_"
   gradientUnits="userSpaceOnUse"
   x1="302.06839"
   y1="359.81351"
   x2="302.06839"
   y2="286.60599">
		<stop
   offset="0.0054"
   style="stop-color:#C73A38"
   id="stop16" />
		<stop
   offset="0.9946"
   style="stop-color:#F9B233"
   id="stop18" />
	</linearGradient>
	<path
   fill="url(#SVGID_3_)"
   d="m 306.029,359.813 c 11.724,0 19.844,-5.039 22.004,-6.684 V 317.76 h -25.398 v 8.226 h 15.118 v 22.826 c -0.72,1.026 -5.761,2.774 -12.032,2.774 -16.35,0 -18.305,-17.068 -18.305,-30.538 0,-12.85 3.087,-26.218 16.452,-26.218 8.946,0 12.341,5.862 12.341,11.927 h 11.415 c 0,-13.673 -10.797,-20.152 -23.651,-20.152 -20.152,0 -27.868,14.91 -27.868,34.443 0,27.454 11.618,38.765 29.924,38.765 z"
   id="path21"
   style="fill:url(#SVGID_3_)" />
	<linearGradient
   id="SVGID_4_"
   gradientUnits="userSpaceOnUse"
   x1="390.43549"
   y1="358.68161"
   x2="390.43549"
   y2="287.7363">
		<stop
   offset="0.0054"
   style="stop-color:#C73A38"
   id="stop23" />
		<stop
   offset="0.9946"
   style="stop-color:#F9B233"
   id="stop25" />
	</linearGradient>
	<polygon
   fill="url(#SVGID_4_)"
   points="403.444,358.682 415.576,358.682 415.576,287.736 406.321,287.736 406.321,343.26 406.118,343.26 378.147,287.736 365.295,287.736 365.295,358.682 374.549,358.682 374.549,301.824 374.756,301.824 "
   id="polygon28"
   style="fill:url(#SVGID_4_)" />
	<linearGradient
   id="SVGID_5_"
   gradientUnits="userSpaceOnUse"
   x1="461.0527"
   y1="358.68161"
   x2="461.0527"
   y2="287.7363">
		<stop
   offset="0.0054"
   style="stop-color:#C73A38"
   id="stop30" />
		<stop
   offset="0.9946"
   style="stop-color:#F9B233"
   id="stop32" />
	</linearGradient>
	<rect
   x="455.91299"
   y="287.73599"
   fill="url(#SVGID_5_)"
   width="10.278"
   height="70.945"
   id="rect35"
   style="fill:url(#SVGID_5_)" />
	<linearGradient
   id="SVGID_6_"
   gradientUnits="userSpaceOnUse"
   x1="524.18158"
   y1="359.81351"
   x2="524.18158"
   y2="286.60599">
		<stop
   offset="0.0054"
   style="stop-color:#C73A38"
   id="stop37" />
		<stop
   offset="0.9946"
   style="stop-color:#F9B233"
   id="stop39" />
	</linearGradient>
	<path
   fill="url(#SVGID_6_)"
   d="m 521.764,351.587 c -7.918,0 -14.702,-2.879 -18.817,-5.244 v 10.694 c 2.161,0.717 9.563,2.776 17.995,2.776 14.601,0 25.605,-6.478 25.605,-20.151 0,-11.211 -8.019,-15.63 -14.912,-19.535 l -6.992,-4.114 c -5.245,-2.983 -11.517,-6.375 -11.517,-11.93 0,-5.961 4.729,-9.252 11.726,-9.252 7.197,0 15.319,3.085 16.657,3.497 v -9.664 c -2.363,-0.617 -9.358,-2.058 -16.146,-2.058 -13.264,0 -23.547,5.656 -23.547,18.3 0,10.901 8.842,14.911 15.427,18.715 l 6.477,3.804 c 5.552,3.291 11.517,6.273 11.517,13.676 -10e-4,7.712 -6.787,10.486 -13.473,10.486 z"
   id="path42"
   style="fill:url(#SVGID_6_)" />
</g>
<g
   id="g58"
   transform="translate(-30.718,-240.709)">
	<path
   fill="#c73b38"
   d="m 265.563,380.456 c -2.273,-1.216 -4.957,-1.824 -8.052,-1.824 -4.193,0 -7.962,1.125 -11.315,3.38 -3.348,2.252 -5.973,5.378 -7.873,9.372 -1.901,3.996 -2.85,8.482 -2.85,13.458 0,3.252 0.637,6.092 1.909,8.521 1.272,2.431 3.086,4.301 5.437,5.614 2.35,1.314 5.092,1.968 8.228,1.968 3.015,0 5.718,-0.568 8.108,-1.705 2.389,-1.136 4.37,-2.799 5.937,-4.996 l -3.116,-3.407 c -1.371,1.645 -2.918,2.869 -4.641,3.674 -1.726,0.802 -3.703,1.204 -5.937,1.204 -3.018,0 -5.348,-0.95 -6.994,-2.851 -1.645,-1.901 -2.467,-4.593 -2.467,-8.081 0,-3.956 0.666,-7.532 1.998,-10.726 1.332,-3.19 3.151,-5.69 5.466,-7.492 2.312,-1.801 4.916,-2.703 7.815,-2.703 4.233,0 7.112,1.625 8.64,4.878 l 4.29,-3.41 c -0.786,-2.035 -2.312,-3.661 -4.583,-4.874 z"
   id="path46" />
	<path
   fill="#c73b38"
   d="m 320.801,394.499 c 0,-3.211 -0.617,-6.013 -1.851,-8.402 -1.235,-2.391 -2.991,-4.234 -5.261,-5.525 -2.273,-1.293 -4.918,-1.94 -7.936,-1.94 -4.113,0 -7.806,1.139 -11.077,3.41 -3.271,2.271 -5.838,5.417 -7.699,9.43 -1.86,4.017 -2.791,8.533 -2.791,13.548 0,3.213 0.616,6.014 1.849,8.405 1.234,2.389 3,4.239 5.291,5.552 2.291,1.314 4.944,1.968 7.962,1.968 4.113,0 7.807,-1.136 11.079,-3.407 3.269,-2.273 5.826,-5.426 7.668,-9.463 1.843,-4.033 2.766,-8.559 2.766,-13.576 z m -8.436,11.019 c -1.273,3.194 -3.016,5.712 -5.229,7.552 -2.215,1.843 -4.673,2.763 -7.374,2.763 -2.822,0 -5.036,-1 -6.643,-2.997 -1.607,-1.999 -2.408,-4.741 -2.408,-8.228 0,-3.879 0.636,-7.405 1.909,-10.579 1.273,-3.172 3.027,-5.681 5.261,-7.523 2.232,-1.84 4.7,-2.761 7.405,-2.761 2.782,0 4.976,0.998 6.581,2.999 1.606,1.998 2.411,4.721 2.411,8.167 -0.001,3.879 -0.64,7.416 -1.913,10.607 z"
   id="path48" />
	<polygon
   fill="#c73b38"
   points="367.398,379.22 361.052,379.22 347.652,410.192 347.829,379.22 340.953,379.22 342.362,420.358 348.711,420.358 362.875,387.683 365.575,420.358 371.688,420.358 387.498,379.22 380.622,379.22 369.867,410.073 "
   id="polygon50" />
	<path
   fill="#c73b38"
   d="m 430.042,380.572 c -2.273,-1.293 -4.918,-1.94 -7.935,-1.94 -4.115,0 -7.808,1.139 -11.078,3.41 -3.271,2.271 -5.837,5.417 -7.699,9.43 -1.86,4.017 -2.79,8.533 -2.79,13.548 0,3.213 0.616,6.014 1.85,8.405 1.236,2.389 2.998,4.239 5.291,5.552 2.292,1.314 4.944,1.968 7.962,1.968 4.113,0 7.807,-1.136 11.078,-3.407 3.271,-2.273 5.826,-5.426 7.671,-9.463 1.84,-4.033 2.76,-8.559 2.76,-13.576 0,-3.211 -0.616,-6.013 -1.853,-8.402 -1.234,-2.39 -2.987,-4.234 -5.257,-5.525 z m -1.324,24.946 c -1.271,3.194 -3.018,5.712 -5.229,7.552 -2.215,1.843 -4.672,2.763 -7.375,2.763 -2.822,0 -5.035,-1 -6.64,-2.997 -1.608,-1.999 -2.409,-4.741 -2.409,-8.228 0,-3.879 0.635,-7.405 1.908,-10.579 1.272,-3.172 3.026,-5.681 5.259,-7.523 2.235,-1.84 4.701,-2.761 7.405,-2.761 2.783,0 4.976,0.998 6.581,2.999 1.606,1.998 2.412,4.721 2.412,8.167 0,3.879 -0.639,7.416 -1.912,10.607 z"
   id="path52" />
	<path
   fill="#c73b38"
   d="m 482.224,381.571 c -2.116,-1.567 -5.153,-2.351 -9.108,-2.351 h -12.813 l -7.228,41.138 h 6.406 l 2.996,-16.985 h 3.879 c 1.956,0 3.33,0.266 4.115,0.794 0.781,0.528 1.329,1.576 1.645,3.143 l 2.702,13.048 h 6.875 l -3.466,-15.281 c -0.156,-0.782 -0.422,-1.447 -0.794,-1.998 -0.371,-0.547 -0.912,-1.116 -1.615,-1.704 v -0.116 c 3.056,-0.862 5.415,-2.412 7.082,-4.644 1.663,-2.233 2.495,-5.015 2.495,-8.343 0,-2.902 -1.056,-5.134 -3.171,-6.701 z m -5.732,14.221 c -1.666,1.608 -3.925,2.409 -6.787,2.409 h -6.345 l 2.466,-13.75 h 6.171 c 2.35,0 4.104,0.402 5.261,1.205 1.155,0.801 1.732,2.046 1.732,3.732 0,2.663 -0.831,4.799 -2.498,6.404 z"
   id="path54" />
	<polygon
   fill="#c73b38"
   points="530.351,379.22 511.369,398.672 514.778,379.22 508.314,379.22 501.083,420.358 507.492,420.358 509.783,407.371 516.656,400.494 525.532,420.358 532.115,420.358 521.36,395.792 537.931,379.22 "
   id="polygon56" />
</g>
<g
   id="g60"
   transform="translate(-30.718,-240.709)">
</g>
<g
   id="g62"
   transform="translate(-30.718,-240.709)">
</g>
<g
   id="g64"
   transform="translate(-30.718,-240.709)">
</g>
<g
   id="g66"
   transform="translate(-30.718,-240.709)">
</g>
<g
   id="g68"
   transform="translate(-30.718,-240.709)">
</g>
<g
   id="g70"
   transform="translate(-30.718,-240.709)">
</g>
</svg>
