<?xml version="1.0" encoding="UTF-8" standalone="no"?>
<svg
   xmlns:dc="http://purl.org/dc/elements/1.1/"
   xmlns:cc="http://creativecommons.org/ns#"
   xmlns:rdf="http://www.w3.org/1999/02/22-rdf-syntax-ns#"
   xmlns:svg="http://www.w3.org/2000/svg"
   xmlns="http://www.w3.org/2000/svg"
   xmlns:sodipodi="http://sodipodi.sourceforge.net/DTD/sodipodi-0.dtd"
   xmlns:inkscape="http://www.inkscape.org/namespaces/inkscape"
   version="1.1"
   id="Capa_1"
   x="0px"
   y="0px"
   width="515.59601"
   height="179.828"
   viewBox="0 0 515.59598 179.828"
   enable-background="new 0 0 595.28 841.89"
   xml:space="preserve"
   sodipodi:docname="IGNIS_cowork_horizontal2.svg"
   inkscape:version="1.0.1 (3bc2e813f5, 2020-09-07)"><metadata
   id="metadata47"><rdf:RDF><cc:Work
       rdf:about=""><dc:format>image/svg+xml</dc:format><dc:type
         rdf:resource="http://purl.org/dc/dcmitype/StillImage" /><dc:title></dc:title></cc:Work></rdf:RDF></metadata><defs
   id="defs45" /><sodipodi:namedview
   pagecolor="#ffffff"
   bordercolor="#666666"
   borderopacity="1"
   objecttolerance="10"
   gridtolerance="10"
   guidetolerance="10"
   inkscape:pageopacity="0"
   inkscape:pageshadow="2"
   inkscape:window-width="1920"
   inkscape:window-height="1057"
   id="namedview43"
   showgrid="false"
   fit-margin-top="0"
   fit-margin-left="0"
   fit-margin-right="0"
   fit-margin-bottom="0"
   inkscape:zoom="1.0096331"
   inkscape:cx="268.36701"
   inkscape:cy="110.47801"
   inkscape:window-x="318"
   inkscape:window-y="-8"
   inkscape:window-maximized="1"
   inkscape:current-layer="Capa_1" />
<g
   id="g28"
   transform="translate(-29.273,-310.467)">
	<g
   id="g12">
		<rect
   x="229.96899"
   y="357.08401"
   width="10.282"
   height="70.945"
   id="rect2" />
		<path
   d="m 304.352,429.162 c 11.724,0 19.844,-5.039 22.004,-6.685 v -35.369 h -25.398 v 8.226 h 15.118 v 22.826 c -0.72,1.026 -5.761,2.774 -12.032,2.774 -16.35,0 -18.305,-17.068 -18.305,-30.538 0,-12.85 3.087,-26.218 16.452,-26.218 8.946,0 12.341,5.862 12.341,11.927 h 11.415 c 0,-13.673 -10.797,-20.152 -23.651,-20.152 -20.152,0 -27.868,14.91 -27.868,34.443 -10e-4,27.455 11.617,38.766 29.924,38.766 z"
   id="path4" />
		<polygon
   points="401.767,428.029 413.898,428.029 413.898,357.084 404.644,357.084 404.644,412.608 404.44,412.608 376.47,357.084 363.617,357.084 363.617,428.029 372.871,428.029 372.871,371.172 373.078,371.172 "
   id="polygon6" />
		<rect
   x="454.23499"
   y="357.08401"
   width="10.278"
   height="70.945"
   id="rect8" />
		<path
   d="m 520.086,420.935 c -7.918,0 -14.702,-2.879 -18.817,-5.244 v 10.694 c 2.161,0.717 9.563,2.776 17.995,2.776 14.601,0 25.605,-6.479 25.605,-20.152 0,-11.211 -8.019,-15.63 -14.912,-19.535 l -6.992,-4.114 c -5.245,-2.983 -11.517,-6.375 -11.517,-11.93 0,-5.961 4.729,-9.252 11.726,-9.252 7.197,0 15.319,3.085 16.657,3.497 v -9.664 c -2.363,-0.617 -9.358,-2.058 -16.146,-2.058 -13.264,0 -23.547,5.656 -23.547,18.3 0,10.901 8.842,14.911 15.427,18.715 l 6.477,3.804 c 5.552,3.291 11.517,6.273 11.517,13.676 0,7.713 -6.787,10.487 -13.473,10.487 z"
   id="path10" />
	</g>
	<path
   fill="#010202"
   d="m 263.885,449.805 c -2.273,-1.217 -4.957,-1.824 -8.052,-1.824 -4.193,0 -7.962,1.125 -11.315,3.38 -3.348,2.253 -5.973,5.378 -7.873,9.372 -1.901,3.996 -2.85,8.482 -2.85,13.459 0,3.252 0.637,6.092 1.909,8.52 1.272,2.432 3.086,4.301 5.437,5.614 2.35,1.313 5.092,1.968 8.228,1.968 3.015,0 5.718,-0.568 8.108,-1.705 2.389,-1.136 4.37,-2.799 5.937,-4.996 l -3.116,-3.406 c -1.371,1.645 -2.918,2.869 -4.641,3.674 -1.726,0.803 -3.703,1.204 -5.937,1.204 -3.018,0 -5.348,-0.95 -6.994,-2.851 -1.645,-1.901 -2.467,-4.593 -2.467,-8.08 0,-3.957 0.666,-7.533 1.998,-10.727 1.332,-3.19 3.151,-5.689 5.466,-7.492 2.312,-1.801 4.916,-2.703 7.815,-2.703 4.233,0 7.112,1.626 8.64,4.879 l 4.29,-3.41 c -0.785,-2.037 -2.312,-3.663 -4.583,-4.876 z"
   id="path14" />
	<path
   fill="#010202"
   d="m 319.123,463.848 c 0,-3.212 -0.617,-6.014 -1.851,-8.402 -1.235,-2.391 -2.991,-4.234 -5.261,-5.525 -2.273,-1.293 -4.918,-1.939 -7.936,-1.939 -4.113,0 -7.806,1.139 -11.077,3.409 -3.271,2.271 -5.838,5.417 -7.699,9.431 -1.86,4.016 -2.791,8.533 -2.791,13.547 0,3.214 0.616,6.015 1.849,8.406 1.234,2.389 3,4.238 5.291,5.552 2.291,1.313 4.944,1.968 7.962,1.968 4.113,0 7.807,-1.136 11.079,-3.407 3.269,-2.273 5.826,-5.426 7.668,-9.463 1.843,-4.035 2.766,-8.561 2.766,-13.577 z m -8.435,11.018 c -1.273,3.194 -3.016,5.712 -5.229,7.552 -2.215,1.843 -4.673,2.764 -7.374,2.764 -2.822,0 -5.036,-1 -6.643,-2.998 -1.607,-1.998 -2.408,-4.74 -2.408,-8.228 0,-3.879 0.636,-7.405 1.909,-10.579 1.273,-3.172 3.027,-5.681 5.261,-7.523 2.232,-1.84 4.7,-2.76 7.405,-2.76 2.782,0 4.976,0.998 6.581,2.998 1.606,1.998 2.411,4.721 2.411,8.168 -10e-4,3.879 -0.641,7.415 -1.913,10.606 z"
   id="path16" />
	<polygon
   fill="#010202"
   points="365.721,448.568 359.374,448.568 345.975,479.54 346.151,448.568 339.275,448.568 340.685,489.707 347.033,489.707 361.197,457.031 363.897,489.707 370.011,489.707 385.82,448.568 378.944,448.568 368.189,479.422 "
   id="polygon18" />
	<path
   fill="#010202"
   d="m 428.364,449.92 c -2.273,-1.293 -4.918,-1.939 -7.935,-1.939 -4.115,0 -7.808,1.139 -11.078,3.409 -3.271,2.271 -5.837,5.417 -7.699,9.431 -1.86,4.016 -2.79,8.533 -2.79,13.547 0,3.214 0.616,6.015 1.85,8.406 1.236,2.389 2.998,4.238 5.291,5.552 2.292,1.313 4.944,1.968 7.962,1.968 4.113,0 7.807,-1.136 11.078,-3.407 3.271,-2.273 5.826,-5.426 7.671,-9.463 1.84,-4.033 2.76,-8.559 2.76,-13.575 0,-3.212 -0.616,-6.014 -1.853,-8.402 -1.233,-2.392 -2.987,-4.236 -5.257,-5.527 z m -1.324,24.946 c -1.271,3.194 -3.018,5.712 -5.229,7.552 -2.215,1.843 -4.672,2.764 -7.375,2.764 -2.822,0 -5.035,-1 -6.64,-2.998 -1.608,-1.998 -2.409,-4.74 -2.409,-8.228 0,-3.879 0.635,-7.405 1.908,-10.579 1.272,-3.172 3.026,-5.681 5.259,-7.523 2.235,-1.84 4.701,-2.76 7.405,-2.76 2.783,0 4.976,0.998 6.581,2.998 1.606,1.998 2.412,4.721 2.412,8.168 0,3.879 -0.639,7.415 -1.912,10.606 z"
   id="path20" />
	<path
   fill="#010202"
   d="m 480.546,450.92 c -2.116,-1.567 -5.153,-2.352 -9.108,-2.352 h -12.813 l -7.228,41.139 h 6.406 l 2.996,-16.986 h 3.879 c 1.956,0 3.33,0.266 4.115,0.795 0.781,0.527 1.329,1.576 1.645,3.143 l 2.702,13.049 h 6.875 l -3.466,-15.281 c -0.156,-0.782 -0.422,-1.447 -0.794,-1.998 -0.371,-0.547 -0.912,-1.115 -1.615,-1.704 v -0.116 c 3.056,-0.861 5.415,-2.412 7.082,-4.645 1.663,-2.232 2.495,-5.014 2.495,-8.343 0,-2.902 -1.056,-5.135 -3.171,-6.701 z m -5.732,14.22 c -1.666,1.608 -3.925,2.409 -6.787,2.409 h -6.345 l 2.466,-13.75 h 6.171 c 2.35,0 4.104,0.402 5.261,1.205 1.155,0.801 1.732,2.046 1.732,3.732 10e-4,2.662 -0.831,4.799 -2.498,6.404 z"
   id="path22" />
	<polygon
   fill="#010202"
   points="528.673,448.568 509.691,468.021 513.101,448.568 506.637,448.568 499.405,489.707 505.814,489.707 508.105,476.719 514.979,469.842 523.854,489.707 530.438,489.707 519.683,465.14 536.253,448.568 "
   id="polygon24" />
	<path
   d="m 177.4,369.386 c -10.653,25.799 -24.655,30.606 -46.072,51.486 0.638,-7.761 0.553,-15.956 -0.268,-24.779 -3.584,-38.604 -18.437,-63.583 -50.5,-85.626 2.384,5.696 3.543,9 5.233,14.936 9.502,33.411 -2.498,47.032 -5.942,88.875 -0.116,1.442 -0.204,2.837 -0.274,4.209 -13.112,-15.2 -28.438,-22.468 -50.304,-24.373 3.216,2.489 4.955,4.006 7.848,6.863 16.298,16.069 13.838,27.777 25.447,52.887 9.206,19.916 19.327,23.996 34.826,35.787 l -0.001,0.004 c 0.004,0 0.005,0 0.005,0 h 0.005 c 33.234,-4.592 54.335,-17.994 72.618,-46.128 18.747,-28.854 22.151,-54.425 11.953,-87.419 -1.469,5.276 -2.483,8.219 -4.574,13.278 z M 69.55,444.924 c -2.24,-5.853 -3.612,-10.773 -4.171,-15.784 2.013,1.271 3.691,2.376 5.874,4.097 14.22,11.197 21.374,24.082 21.751,41.354 C 81.745,467.576 74.787,458.607 69.55,444.924 Z m 22.211,-8.188 c 0.241,-8.959 1.782,-18.277 4.606,-28.431 2.875,-10.354 6.002,-18.534 10.34,-26.012 1.483,3.801 2.666,7.034 3.923,11.633 7.889,28.808 5.116,53.1 -10.337,76.46 0.268,-11.829 -2.501,-22.599 -8.532,-33.65 z m 65.97,-7.648 c -10.403,24.499 -25.717,40.033 -49.285,47.959 9.232,-11.516 15.54,-23.189 19.259,-35.878 3.561,-3.382 7.526,-6.661 11.956,-9.896 7.798,-5.691 14.562,-9.724 21.789,-12.578 -1.072,3.506 -2.042,6.447 -3.719,10.393 z"
   id="path26" />
</g>
<g
   id="g30"
   transform="translate(-29.273,-310.467)">
</g>
<g
   id="g32"
   transform="translate(-29.273,-310.467)">
</g>
<g
   id="g34"
   transform="translate(-29.273,-310.467)">
</g>
<g
   id="g36"
   transform="translate(-29.273,-310.467)">
</g>
<g
   id="g38"
   transform="translate(-29.273,-310.467)">
</g>
<g
   id="g40"
   transform="translate(-29.273,-310.467)">
</g>
</svg>
