<?xml version="1.0" encoding="UTF-8" standalone="no"?>
<svg
   xmlns:dc="http://purl.org/dc/elements/1.1/"
   xmlns:cc="http://creativecommons.org/ns#"
   xmlns:rdf="http://www.w3.org/1999/02/22-rdf-syntax-ns#"
   xmlns:svg="http://www.w3.org/2000/svg"
   xmlns="http://www.w3.org/2000/svg"
   xmlns:sodipodi="http://sodipodi.sourceforge.net/DTD/sodipodi-0.dtd"
   xmlns:inkscape="http://www.inkscape.org/namespaces/inkscape"
   version="1.1"
   id="Capa_1"
   x="0px"
   y="0px"
   width="515.59497"
   height="179.827"
   viewBox="0 0 515.59495 179.82699"
   enable-background="new 0 0 595.28 841.89"
   xml:space="preserve"
   sodipodi:docname="logoIC_horiz_BLANCO.svg"
   inkscape:version="1.0.1 (3bc2e813f5, 2020-09-07)"><metadata
   id="metadata55"><rdf:RDF><cc:Work
       rdf:about=""><dc:format>image/svg+xml</dc:format><dc:type
         rdf:resource="http://purl.org/dc/dcmitype/StillImage" /></cc:Work></rdf:RDF></metadata><defs
   id="defs53" /><sodipodi:namedview
   pagecolor="#ffffff"
   bordercolor="#666666"
   borderopacity="1"
   objecttolerance="10"
   gridtolerance="10"
   guidetolerance="10"
   inkscape:pageopacity="0"
   inkscape:pageshadow="2"
   inkscape:window-width="1163"
   inkscape:window-height="1008"
   id="namedview51"
   showgrid="false"
   inkscape:zoom="1.0571452"
   inkscape:cx="92.257843"
   inkscape:cy="231.07401"
   inkscape:window-x="-7"
   inkscape:window-y="1080"
   inkscape:window-maximized="0"
   inkscape:current-layer="Capa_1" />
<g
   id="g36"
   transform="translate(-39.842,-189.871)">
	<g
   id="g20">
		<rect
   x="240.53799"
   y="236.48801"
   fill="#ffffff"
   width="10.282"
   height="70.945"
   id="rect10" />
		<path
   fill="#ffffff"
   d="m 314.922,308.566 c 11.723,0 19.842,-5.039 22.002,-6.686 v -35.369 h -25.396 v 8.227 h 15.117 v 22.826 c -0.719,1.025 -5.76,2.773 -12.031,2.773 -16.351,0 -18.306,-17.066 -18.306,-30.537 0,-12.85 3.087,-26.219 16.452,-26.219 8.947,0 12.342,5.863 12.342,11.928 h 11.414 c 0,-13.672 -10.797,-20.152 -23.65,-20.152 -20.153,0 -27.869,14.91 -27.869,34.443 0,27.453 11.618,38.766 29.925,38.766 z"
   id="path12" />
		<polygon
   fill="#ffffff"
   points="412.336,307.433 424.467,307.433 424.467,236.488 415.213,236.488 415.213,292.011 415.01,292.011 387.039,236.488 374.186,236.488 374.186,307.433 383.439,307.433 383.439,250.576 383.646,250.576 "
   id="polygon14" />
		<rect
   x="464.80499"
   y="236.48801"
   fill="#ffffff"
   width="10.277"
   height="70.945"
   id="rect16" />
		<path
   fill="#ffffff"
   d="m 530.654,300.337 c -7.918,0 -14.701,-2.879 -18.816,-5.242 v 10.693 c 2.16,0.717 9.563,2.777 17.994,2.777 14.602,0 25.605,-6.479 25.605,-20.152 0,-11.211 -8.018,-15.631 -14.912,-19.535 l -6.992,-4.115 c -5.244,-2.982 -11.516,-6.375 -11.516,-11.93 0,-5.961 4.729,-9.252 11.725,-9.252 7.197,0 15.32,3.086 16.658,3.498 v -9.664 c -2.363,-0.617 -9.359,-2.059 -16.146,-2.059 -13.264,0 -23.547,5.656 -23.547,18.301 0,10.9 8.842,14.91 15.428,18.715 l 6.477,3.803 c 5.551,3.291 11.516,6.273 11.516,13.676 -0.001,7.713 -6.786,10.486 -13.474,10.486 z"
   id="path18" />
	</g>
	<path
   fill="#ffffff"
   d="m 274.454,329.208 c -2.273,-1.217 -4.957,-1.824 -8.052,-1.824 -4.193,0 -7.962,1.125 -11.315,3.379 -3.348,2.254 -5.973,5.379 -7.873,9.373 -1.901,3.996 -2.85,8.482 -2.85,13.459 0,3.252 0.637,6.092 1.909,8.52 1.272,2.432 3.086,4.301 5.437,5.613 2.35,1.314 5.092,1.969 8.228,1.969 3.015,0 5.718,-0.568 8.108,-1.705 2.389,-1.137 4.37,-2.799 5.937,-4.996 l -3.116,-3.406 c -1.371,1.645 -2.918,2.869 -4.641,3.674 -1.726,0.803 -3.703,1.203 -5.937,1.203 -3.018,0 -5.348,-0.949 -6.994,-2.85 -1.645,-1.902 -2.467,-4.594 -2.467,-8.08 0,-3.957 0.666,-7.533 1.998,-10.727 1.332,-3.191 3.151,-5.689 5.466,-7.492 2.312,-1.801 4.916,-2.703 7.815,-2.703 4.233,0 7.112,1.625 8.64,4.879 l 4.29,-3.41 c -0.785,-2.038 -2.311,-3.663 -4.583,-4.876 z"
   id="path22" />
	<path
   fill="#ffffff"
   d="m 329.691,343.251 c 0,-3.213 -0.617,-6.014 -1.85,-8.402 -1.234,-2.391 -2.99,-4.234 -5.26,-5.525 -2.273,-1.293 -4.918,-1.939 -7.936,-1.939 -4.113,0 -7.807,1.139 -11.078,3.408 -3.271,2.271 -5.837,5.418 -7.699,9.432 -1.86,4.016 -2.791,8.533 -2.791,13.547 0,3.213 0.616,6.014 1.849,8.406 1.234,2.389 3,4.238 5.291,5.551 2.291,1.314 4.944,1.969 7.963,1.969 4.113,0 7.807,-1.137 11.08,-3.408 3.268,-2.273 5.826,-5.426 7.668,-9.463 1.842,-4.035 2.763,-8.56 2.763,-13.576 z m -8.433,11.018 c -1.273,3.195 -3.016,5.713 -5.23,7.553 -2.215,1.842 -4.672,2.764 -7.374,2.764 -2.821,0 -5.036,-1 -6.643,-2.998 -1.607,-1.998 -2.408,-4.74 -2.408,-8.229 0,-3.879 0.636,-7.404 1.909,-10.578 1.273,-3.172 3.027,-5.682 5.26,-7.523 2.232,-1.84 4.701,-2.76 7.406,-2.76 2.781,0 4.975,0.998 6.58,2.998 1.607,1.998 2.412,4.721 2.412,8.168 0,3.878 -0.641,7.414 -1.912,10.605 z"
   id="path24" />
	<polygon
   fill="#ffffff"
   points="376.289,327.972 369.943,327.972 356.543,358.943 356.721,327.972 349.844,327.972 351.254,369.111 357.602,369.111 371.766,336.435 374.467,369.111 380.58,369.111 396.389,327.972 389.514,327.972 378.758,358.826 "
   id="polygon26" />
	<path
   fill="#ffffff"
   d="m 438.934,329.324 c -2.273,-1.293 -4.918,-1.939 -7.936,-1.939 -4.115,0 -7.807,1.139 -11.078,3.408 -3.271,2.271 -5.836,5.418 -7.699,9.432 -1.859,4.016 -2.789,8.533 -2.789,13.547 0,3.213 0.615,6.014 1.85,8.406 1.236,2.389 2.998,4.238 5.291,5.551 2.291,1.314 4.943,1.969 7.961,1.969 4.113,0 7.807,-1.137 11.078,-3.408 3.271,-2.273 5.826,-5.426 7.672,-9.463 1.84,-4.033 2.76,-8.559 2.76,-13.574 0,-3.213 -0.617,-6.014 -1.854,-8.402 -1.233,-2.393 -2.987,-4.236 -5.256,-5.527 z m -1.325,24.945 c -1.271,3.195 -3.018,5.713 -5.23,7.553 -2.215,1.842 -4.672,2.764 -7.375,2.764 -2.822,0 -5.035,-1 -6.639,-2.998 -1.609,-1.998 -2.41,-4.74 -2.41,-8.229 0,-3.879 0.635,-7.404 1.908,-10.578 1.273,-3.172 3.027,-5.682 5.26,-7.523 2.234,-1.84 4.701,-2.76 7.404,-2.76 2.783,0 4.977,0.998 6.582,2.998 1.605,1.998 2.412,4.721 2.412,8.168 0,3.878 -0.638,7.414 -1.912,10.605 z"
   id="path28" />
	<path
   fill="#ffffff"
   d="m 491.115,330.324 c -2.117,-1.568 -5.154,-2.352 -9.109,-2.352 h -12.813 l -7.229,41.139 h 6.406 l 2.996,-16.986 h 3.879 c 1.957,0 3.33,0.266 4.115,0.795 0.781,0.527 1.33,1.576 1.645,3.143 l 2.703,13.049 h 6.875 l -3.467,-15.281 c -0.156,-0.783 -0.422,-1.447 -0.793,-1.998 -0.371,-0.547 -0.912,-1.115 -1.615,-1.705 v -0.115 c 3.055,-0.861 5.414,-2.412 7.082,-4.645 1.662,-2.232 2.494,-5.014 2.494,-8.344 0.001,-2.901 -1.054,-5.134 -3.169,-6.7 z m -5.732,14.218 c -1.666,1.609 -3.924,2.41 -6.787,2.41 h -6.344 l 2.465,-13.75 h 6.172 c 2.35,0 4.104,0.402 5.26,1.205 1.156,0.801 1.732,2.045 1.732,3.732 0,2.663 -0.83,4.8 -2.498,6.403 z"
   id="path30" />
	<polygon
   fill="#ffffff"
   points="539.242,327.972 520.26,347.423 523.67,327.972 517.205,327.972 509.975,369.111 516.383,369.111 518.674,356.123 525.547,349.246 534.424,369.111 541.006,369.111 530.252,344.542 546.822,327.972 "
   id="polygon32" />
	<path
   fill="#ffffff"
   d="m 187.969,248.789 c -10.653,25.799 -24.655,30.607 -46.072,51.486 0.638,-7.76 0.553,-15.955 -0.268,-24.777 -3.584,-38.605 -18.437,-63.584 -50.5,-85.627 2.384,5.695 3.543,9 5.233,14.936 9.502,33.412 -2.498,47.033 -5.942,88.877 -0.116,1.441 -0.204,2.836 -0.274,4.209 -13.112,-15.201 -28.438,-22.469 -50.304,-24.373 3.216,2.488 4.955,4.006 7.848,6.863 16.298,16.068 13.838,27.777 25.447,52.887 9.206,19.916 19.327,23.996 34.826,35.787 l -10e-4,0.004 c 0.004,0 0.005,0 0.005,0 h 0.005 c 33.234,-4.592 54.335,-17.994 72.618,-46.129 18.747,-28.854 22.151,-54.426 11.953,-87.42 -1.468,5.275 -2.483,8.218 -4.574,13.277 z m -107.85,75.539 c -2.24,-5.854 -3.612,-10.773 -4.171,-15.785 2.013,1.271 3.691,2.377 5.874,4.098 14.22,11.197 21.374,24.082 21.751,41.354 C 92.314,346.98 85.356,338.011 80.119,324.328 Z m 22.211,-8.188 c 0.241,-8.959 1.782,-18.277 4.606,-28.432 2.875,-10.354 6.002,-18.533 10.34,-26.012 1.483,3.801 2.666,7.033 3.923,11.633 7.889,28.809 5.116,53.1 -10.337,76.461 0.268,-11.83 -2.5,-22.599 -8.532,-33.65 z m 65.971,-7.648 c -10.403,24.498 -25.717,40.033 -49.285,47.959 9.232,-11.516 15.54,-23.189 19.259,-35.879 3.561,-3.381 7.526,-6.66 11.956,-9.895 7.798,-5.691 14.562,-9.725 21.789,-12.578 -1.073,3.506 -2.042,6.445 -3.719,10.393 z"
   id="path34" />
</g>
<g
   id="g38"
   transform="translate(-39.842,-189.871)">
</g>
<g
   id="g40"
   transform="translate(-39.842,-189.871)">
</g>
<g
   id="g42"
   transform="translate(-39.842,-189.871)">
</g>
<g
   id="g44"
   transform="translate(-39.842,-189.871)">
</g>
<g
   id="g46"
   transform="translate(-39.842,-189.871)">
</g>
<g
   id="g48"
   transform="translate(-39.842,-189.871)">
</g>
</svg>
